<?xml version="1.0" encoding="UTF-8" standalone="no"?><svg xmlns="http://www.w3.org/2000/svg" xmlns:xlink="http://www.w3.org/1999/xlink" contentScriptType="application/ecmascript" contentStyleType="text/css" height="761px" preserveAspectRatio="none" style="width:451px;height:761px;" version="1.1" viewBox="0 0 451 761" width="451px" zoomAndPan="magnify"><defs><filter height="300%" id="f1xc22ftysychx" width="300%" x="-1" y="-1"><feGaussianBlur result="blurOut" stdDeviation="2.0"/><feColorMatrix in="blurOut" result="blurOut2" type="matrix" values="0 0 0 0 0 0 0 0 0 0 0 0 0 0 0 0 0 0 .4 0"/><feOffset dx="4.0" dy="4.0" in="blurOut2" result="blurOut3"/><feBlend in="SourceGraphic" in2="blurOut3" mode="normal"/></filter></defs><g><line style="stroke: #555555; stroke-width: 1.0;" x1="37" x2="37" y1="86.2969" y2="290.5859"/><line style="stroke: #555555; stroke-width: 1.0; stroke-dasharray: 1.0,4.0;" x1="37" x2="37" y1="290.5859" y2="331.3906"/><line style="stroke: #555555; stroke-width: 1.0;" x1="37" x2="37" y1="331.3906" y2="439.2656"/><line style="stroke: #555555; stroke-width: 1.0; stroke-dasharray: 1.0,4.0;" x1="37" x2="37" y1="439.2656" y2="480.0703"/><line style="stroke: #555555; stroke-width: 1.0;" x1="37" x2="37" y1="480.0703" y2="749.4297"/><line style="stroke: #555555; stroke-width: 1.0;" x1="205" x2="205" y1="86.2969" y2="290.5859"/><line style="stroke: #555555; stroke-width: 1.0; stroke-dasharray: 1.0,4.0;" x1="205" x2="205" y1="290.5859" y2="331.3906"/><line style="stroke: #555555; stroke-width: 1.0;" x1="205" x2="205" y1="331.3906" y2="439.2656"/><line style="stroke: #555555; stroke-width: 1.0; stroke-dasharray: 1.0,4.0;" x1="205" x2="205" y1="439.2656" y2="480.0703"/><line style="stroke: #555555; stroke-width: 1.0;" x1="205" x2="205" y1="480.0703" y2="749.4297"/><line style="stroke: #555555; stroke-width: 1.0;" x1="409.5" x2="409.5" y1="86.2969" y2="290.5859"/><line style="stroke: #555555; stroke-width: 1.0; stroke-dasharray: 1.0,4.0;" x1="409.5" x2="409.5" y1="290.5859" y2="331.3906"/><line style="stroke: #555555; stroke-width: 1.0;" x1="409.5" x2="409.5" y1="331.3906" y2="439.2656"/><line style="stroke: #555555; stroke-width: 1.0; stroke-dasharray: 1.0,4.0;" x1="409.5" x2="409.5" y1="439.2656" y2="480.0703"/><line style="stroke: #555555; stroke-width: 1.0;" x1="409.5" x2="409.5" y1="480.0703" y2="749.4297"/><text fill="#000000" font-family="sans-serif" font-size="14" lengthAdjust="spacingAndGlyphs" textLength="52" x="8" y="82.9951">Client A</text><ellipse cx="37" cy="13" fill="#FEFECE" filter="url(#f1xc22ftysychx)" rx="8" ry="8" style="stroke: #555555; stroke-width: 2.0;"/><path d="M37,21 L37,48 M24,29 L50,29 M37,48 L24,63 M37,48 L50,63 " fill="none" filter="url(#f1xc22ftysychx)" style="stroke: #555555; stroke-width: 2.0;"/><rect fill="#4338CA" filter="url(#f1xc22ftysychx)" height="62.8906" style="stroke: #4338CA; stroke-width: 1.5;" width="128" x="139" y="18.4063"/><text fill="#000000" font-family="sans-serif" font-size="14" font-style="italic" lengthAdjust="spacingAndGlyphs" textLength="33" x="186.5" y="38.4014">«wf»</text><text fill="#333333" font-family="sans-serif" font-size="14" lengthAdjust="spacingAndGlyphs" textLength="94" x="160" y="54.6982">Cart Workflow</text><text fill="#333333" font-family="sans-serif" font-size="14" lengthAdjust="spacingAndGlyphs" textLength="98" x="154" y="70.9951">(cart-abc-123)</text><text fill="#000000" font-family="sans-serif" font-size="14" lengthAdjust="spacingAndGlyphs" textLength="53" x="380.5" y="82.9951">Client B</text><ellipse cx="410" cy="13" fill="#FEFECE" filter="url(#f1xc22ftysychx)" rx="8" ry="8" style="stroke: #555555; stroke-width: 2.0;"/><path d="M410,21 L410,48 M397,29 L423,29 M410,48 L397,63 M410,48 L423,63 " fill="none" filter="url(#f1xc22ftysychx)" style="stroke: #555555; stroke-width: 2.0;"/><path d="M90,101.2969 L90,149.2969 L315,149.2969 L315,111.2969 L305,101.2969 L90,101.2969 " fill="#FFFFFF" filter="url(#f1xc22ftysychx)" style="stroke: #999999; stroke-width: 1.0;"/><path d="M305,101.2969 L305,111.2969 L315,111.2969 L305,101.2969 " fill="#FFFFFF" style="stroke: #999999; stroke-width: 1.0;"/><text fill="#666666" font-family="sans-serif" font-size="11" font-weight="bold" lengthAdjust="spacingAndGlyphs" textLength="113" x="96" y="116.5073">Event loop starts.</text><text fill="#666666" font-family="sans-serif" font-size="11" lengthAdjust="spacingAndGlyphs" textLength="131" x="96" y="129.312">Local state: empty cart</text><text fill="#666666" font-family="sans-serif" font-size="11" lengthAdjust="spacingAndGlyphs" textLength="204" x="96" y="142.1167">Selector blocks, waiting for signals.</text><polygon fill="#555555" points="193,175.8438,203,179.8438,193,183.8438,197,179.8438" style="stroke: #555555; stroke-width: 1.0;"/><line style="stroke: #555555; stroke-width: 1.0;" x1="37" x2="199" y1="179.8438" y2="179.8438"/><text fill="#000000" font-family="sans-serif" font-size="13" font-weight="bold" lengthAdjust="spacingAndGlyphs" textLength="62" x="44" y="174.7778">addItem</text><text fill="#000000" font-family="sans-serif" font-size="13" lengthAdjust="spacingAndGlyphs" textLength="82" x="106" y="174.7778">(T-shirt, $25)</text><path d="M210,192.8438 L210,214.8438 L365,214.8438 L365,202.8438 L355,192.8438 L210,192.8438 " fill="#FFFFFF" filter="url(#f1xc22ftysychx)" style="stroke: #999999; stroke-width: 1.0;"/><path d="M355,192.8438 L355,202.8438 L365,202.8438 L355,192.8438 " fill="#FFFFFF" style="stroke: #999999; stroke-width: 1.0;"/><text fill="#666666" font-family="sans-serif" font-size="11" lengthAdjust="spacingAndGlyphs" textLength="134" x="216" y="208.0542">state = [{T-shirt, $25}]</text><polygon fill="#555555" points="193,241.7813,203,245.7813,193,249.7813,197,245.7813" style="stroke: #555555; stroke-width: 1.0;"/><line style="stroke: #555555; stroke-width: 1.0;" x1="37" x2="199" y1="245.7813" y2="245.7813"/><text fill="#000000" font-family="sans-serif" font-size="13" font-weight="bold" lengthAdjust="spacingAndGlyphs" textLength="62" x="44" y="240.7153">addItem</text><text fill="#000000" font-family="sans-serif" font-size="13" lengthAdjust="spacingAndGlyphs" textLength="69" x="106" y="240.7153">(Mug, $15)</text><path d="M210,258.7813 L210,280.7813 L439,280.7813 L439,268.7813 L429,258.7813 L210,258.7813 " fill="#FFFFFF" filter="url(#f1xc22ftysychx)" style="stroke: #999999; stroke-width: 1.0;"/><path d="M429,258.7813 L429,268.7813 L439,268.7813 L429,258.7813 " fill="#FFFFFF" style="stroke: #999999; stroke-width: 1.0;"/><text fill="#666666" font-family="sans-serif" font-size="11" lengthAdjust="spacingAndGlyphs" textLength="208" x="216" y="273.9917">state = [{T-shirt, $25}, {Mug, $15}]</text><text fill="#000000" font-family="sans-serif" font-size="11" lengthAdjust="spacingAndGlyphs" textLength="63" x="192" y="314.7964">hours later</text><polygon fill="#555555" points="216,348.5234,206,352.5234,216,356.5234,212,352.5234" style="stroke: #555555; stroke-width: 1.0;"/><line style="stroke: #555555; stroke-width: 1.0;" x1="210" x2="409" y1="352.5234" y2="352.5234"/><text fill="#000000" font-family="sans-serif" font-size="13" lengthAdjust="spacingAndGlyphs" textLength="36" x="222" y="347.4575">query</text><text fill="#000000" font-family="sans-serif" font-size="13" font-weight="bold" lengthAdjust="spacingAndGlyphs" textLength="68" x="262" y="347.4575">getCart()</text><polygon fill="#555555" points="398,377.6563,408,381.6563,398,385.6563,402,381.6563" style="stroke: #555555; stroke-width: 1.0;"/><line style="stroke: #555555; stroke-width: 1.0; stroke-dasharray: 2.0,2.0;" x1="205" x2="404" y1="381.6563" y2="381.6563"/><text fill="#000000" font-family="sans-serif" font-size="13" lengthAdjust="spacingAndGlyphs" textLength="181" x="212" y="376.5903">[{T-shirt, $25}, {Mug, $15}]</text><path d="M210,394.6563 L210,429.6563 L367,429.6563 L367,404.6563 L357,394.6563 L210,394.6563 " fill="#FFFFFF" filter="url(#f1xc22ftysychx)" style="stroke: #999999; stroke-width: 1.0;"/><path d="M357,394.6563 L357,404.6563 L367,404.6563 L357,394.6563 " fill="#FFFFFF" style="stroke: #999999; stroke-width: 1.0;"/><text fill="#666666" font-family="sans-serif" font-size="11" lengthAdjust="spacingAndGlyphs" textLength="136" x="216" y="409.8667">query reads local var —</text><text fill="#666666" font-family="sans-serif" font-size="11" lengthAdjust="spacingAndGlyphs" textLength="93" x="216" y="422.6714">no DB, no cache</text><text fill="#000000" font-family="sans-serif" font-size="11" lengthAdjust="spacingAndGlyphs" textLength="48" x="199.5" y="463.4761">next day</text><polygon fill="#FFFFFF" filter="url(#f1xc22ftysychx)" points="116,485.0703,294,485.0703,304,508.0703,294,531.0703,116,531.0703,106,508.0703,116,485.0703" style="stroke: #999999; stroke-width: 1.0;"/><text fill="#666666" font-family="sans-serif" font-size="11" lengthAdjust="spacingAndGlyphs" textLength="168" x="118" y="499.2808">Worker crashes and restarts.</text><text fill="#666666" font-family="sans-serif" font-size="11" lengthAdjust="spacingAndGlyphs" textLength="174" x="118" y="512.0854">Runtime replays event history.</text><text fill="#666666" font-family="sans-serif" font-size="11" lengthAdjust="spacingAndGlyphs" textLength="131" x="118" y="524.8901">State is reconstructed.</text><polygon fill="#555555" points="193,553.6172,203,557.6172,193,561.6172,197,557.6172" style="stroke: #555555; stroke-width: 1.0;"/><line style="stroke: #555555; stroke-width: 1.0;" x1="37" x2="199" y1="557.6172" y2="557.6172"/><text fill="#000000" font-family="sans-serif" font-size="13" font-weight="bold" lengthAdjust="spacingAndGlyphs" textLength="88" x="44" y="552.5513">removeItem</text><text fill="#000000" font-family="sans-serif" font-size="13" lengthAdjust="spacingAndGlyphs" textLength="50" x="132" y="552.5513">(T-shirt)</text><path d="M210,570.6172 L210,592.6172 L351,592.6172 L351,580.6172 L341,570.6172 L210,570.6172 " fill="#FFFFFF" filter="url(#f1xc22ftysychx)" style="stroke: #999999; stroke-width: 1.0;"/><path d="M341,570.6172 L341,580.6172 L351,580.6172 L341,570.6172 " fill="#FFFFFF" style="stroke: #999999; stroke-width: 1.0;"/><text fill="#666666" font-family="sans-serif" font-size="11" lengthAdjust="spacingAndGlyphs" textLength="120" x="216" y="585.8276">state = [{Mug, $15}]</text><polygon fill="#555555" points="216,619.5547,206,623.5547,216,627.5547,212,623.5547" style="stroke: #555555; stroke-width: 1.0;"/><line style="stroke: #555555; stroke-width: 1.0;" x1="210" x2="409" y1="623.5547" y2="623.5547"/><text fill="#000000" font-family="sans-serif" font-size="13" lengthAdjust="spacingAndGlyphs" textLength="36" x="222" y="618.4888">query</text><text fill="#000000" font-family="sans-serif" font-size="13" font-weight="bold" lengthAdjust="spacingAndGlyphs" textLength="68" x="262" y="618.4888">getCart()</text><polygon fill="#555555" points="398,648.6875,408,652.6875,398,656.6875,402,652.6875" style="stroke: #555555; stroke-width: 1.0;"/><line style="stroke: #555555; stroke-width: 1.0; stroke-dasharray: 2.0,2.0;" x1="205" x2="404" y1="652.6875" y2="652.6875"/><text fill="#000000" font-family="sans-serif" font-size="13" lengthAdjust="spacingAndGlyphs" textLength="85" x="212" y="647.6216">[{Mug, $15}]</text><polygon fill="#555555" points="193,677.8203,203,681.8203,193,685.8203,197,681.8203" style="stroke: #555555; stroke-width: 1.0;"/><line style="stroke: #555555; stroke-width: 1.0;" x1="37" x2="199" y1="681.8203" y2="681.8203"/><text fill="#000000" font-family="sans-serif" font-size="13" font-weight="bold" lengthAdjust="spacingAndGlyphs" textLength="67" x="44" y="676.7544">checkout</text><path d="M76,694.8203 L76,729.8203 L330,729.8203 L330,704.8203 L320,694.8203 L76,694.8203 " fill="#FFFFFF" filter="url(#f1xc22ftysychx)" style="stroke: #999999; stroke-width: 1.0;"/><path d="M320,694.8203 L320,704.8203 L330,704.8203 L320,694.8203 " fill="#FFFFFF" style="stroke: #999999; stroke-width: 1.0;"/><text fill="#666666" font-family="sans-serif" font-size="11" font-weight="bold" lengthAdjust="spacingAndGlyphs" textLength="70" x="82" y="710.0308">Loop exits.</text><text fill="#666666" font-family="sans-serif" font-size="11" lengthAdjust="spacingAndGlyphs" textLength="159" x="156" y="710.0308">Terminal condition reached.</text><text fill="#666666" font-family="sans-serif" font-size="11" lengthAdjust="spacingAndGlyphs" textLength="186" x="82" y="722.8354">Workflow returns final CartState.</text><!--MD5=[bbf33aa5d7c9553a2a3f935c6856f81b]
@startuml
skinparam backgroundColor transparent
skinparam sequence {
  ArrowColor #555555
  LifeLineBorderColor #555555
  LifeLineBackgroundColor #ffffff
  ParticipantBorderColor #555555
  ParticipantBackgroundColor #ffffff
  ParticipantFontColor #333333
  ParticipantFontSize 14
  ActorBorderColor #555555
}
skinparam note {
  BackgroundColor #ffffff
  BorderColor #999999
  FontSize 11
  FontColor #666666
}
skinparam participant<<wf>> {
  BackgroundColor #4338CA
  BorderColor #4338CA
  FontColor #ffffff
}

hide footbox

actor "Client A" as a
participant "  Cart Workflow\n  (cart-abc-123)  " as cart <<wf>>
actor "Client B" as b

note over cart #ffffff
  **Event loop starts.**
  Local state: empty cart
  Selector blocks, waiting for signals.
end note

a -> cart : **addItem**(T-shirt, $25)
note right of cart #ffffff: state = [{T-shirt, $25}]

a -> cart : **addItem**(Mug, $15)
note right of cart #ffffff: state = [{T-shirt, $25}, {Mug, $15}]

...hours later...

b -> cart : query **getCart()**
cart - -> b : [{T-shirt, $25}, {Mug, $15}]
note right of cart #ffffff: query reads local var —\nno DB, no cache

...next day...

hnote over cart #ffffff
  Worker crashes and restarts.
  Runtime replays event history.
  State is reconstructed.
end hnote

a -> cart : **removeItem**(T-shirt)
note right of cart #ffffff: state = [{Mug, $15}]

b -> cart : query **getCart()**
cart - -> b : [{Mug, $15}]

a -> cart : **checkout**

note over cart #ffffff
  **Loop exits.** Terminal condition reached.
  Workflow returns final CartState.
end note

@enduml

PlantUML version 1.2020.02(Sun Mar 01 10:22:07 UTC 2020)
(GPL source distribution)
Java Runtime: OpenJDK Runtime Environment
JVM: OpenJDK 64-Bit Server VM
Java Version: 17.0.18+8
Operating System: Linux
Default Encoding: UTF-8
Language: en
Country: null
--></g></svg>